# xmcd
#
# Track frame offsets:
#	150
#	10800
#	21425
#	30482
#	39914
#	50126
#	60995
#	71186
#	80499
#	90557
#	101537
#	110637
#
# Disc length: 1616 seconds
#
# Revision: 1
# Processed by: cddbd v1.5.2PL0 Copyright (c) Steve Scherf et al.
# Submitted via: EZCDAudioConverter 3.1.0.1
#
DISCID=96064e0c
DTITLE=Mel Tillis - Stateside
DYEAR=1966
DGENRE=Country
TTITLE0=Mel Tillis - Guide Me Home My Georgia Moon
TTITLE1=Mel Tillis - Stateside
TTITLE2=Mel Tillis - Burning Memories
TTITLE3=Mel Tillis and Sue York - Home Is Where The Hurt Is
TTITLE4=Mel Tillis - Wine
TTITLE5=Mel Tillis - I Love You Drops
TTITLE6=Mel Tillis - Mental Revenge
TTITLE7=Mel Tillis - Come On And Sing
TTITLE8=Mel Tillis - Tormented Heart
TTITLE9=Mel Tillis - Buried Alive
TTITLE10=Mel Tillis and Sue York - Above Suspicion
TTITLE11=Mel Tillis - Mr  Dropout
EXTD=
EXTT0=
EXTT1=
EXTT2=
EXTT3=
EXTT4=
EXTT5=
EXTT6=
EXTT7=
EXTT8=
EXTT9=
EXTT10=
EXTT11=
PLAYORDER=
